<?xml version='1.0' encoding='utf-8'?>
<svg xmlns="http://www.w3.org/2000/svg" version="1.1" viewBox="0 0 293.76 325.44"> <g transform="translate(406.72 -212.86)" fill-rule="evenodd" stroke-width="0"> <path d="m-278.28 474.01c-1.212 0.712-2.77 1.028-4 1.028-1.908 0-3.54-0.656-4.888-1.972-1.003-0.971-14.648-78.468-15.264-77.788-1.286 1.405-6.819 9.668-9.374 10.744-1.077 0.467-43.169 0.619-52.346 0.473-6.162-3.416-5.852-8.722-4.814-14.246 0.574-0.246 50.464-0.452 50.704-0.56l16.446-21.314c2.425-1.894 6.536-1.512 8.721 0.568l13.479 67.716c0.757-1.864 35.513-91.253 36.202-91.498h1.711c0.339 0 0.684 0.346 1.065 0.365 0.887 0.304 9.232 60.6 10.014 60.6 0.265-0.604 10.377-15.172 11.172-15.581l73.998-0.366c2.296 5.05 1.899 9.675-0.24 14.026-0.658 0.228-66.521 0.48-66.766 0.674-0.69 0.56-18.902 29.262-20.503 30.408-2.055 1.474-5.447 1.384-7.416-0.17-0.511-0.398-6.679-46.247-6.789-47.292-0.13 0.346-30.564 83.857-31.112 84.185zm18.698 31.34c39.52 16.273 39.434 29.984 80.758-6.021 114.84-100.06 8.272-262.02-80.758-168.57-106.38-96.668-190.36 82.512-77.882 170.56 43.298 33.89 38.83 21.275 77.882 4.031z" fill="#c83b39"/> <path d="m-265.68 243.78c5.99-3.179 11.756-4.827 17.24-4.756 5.04 0.071 9.847 1.577 14.382 4.685 8.317 23.907-0.703 47.567-17.856 64.283-5.066 2.307-8.91 1.424-11.276-3.367 4.633-18.61 5.3-38.433-2.49-60.845z" fill="#56330f"/> <polygon points="-326.51 289.35 -326.55 289.32 -326.76 289.16 -327.16 288.84 -327.56 288.53 -327.96 288.21 -328.35 287.89 -328.74 287.57 -329.13 287.25 -329.51 286.93 -329.88 286.6 -330.25 286.28 -330.62 285.96 -330.98 285.63 -331.34 285.3 -331.7 284.97 -332.04 284.64 -332.39 284.31 -332.73 283.98 -333.07 283.64 -333.4 283.31 -333.74 282.97 -334.06 282.64 -334.38 282.3 -334.7 281.96 -335.02 281.62 -335.32 281.28 -335.63 280.94 -335.94 280.59 -336.23 280.25 -336.53 279.9 -336.82 279.56 -337.1 279.21 -337.39 278.86 -337.67 278.52 -337.94 278.16 -338.22 277.81 -338.48 277.46 -338.75 277.11 -339.27 276.4 -339.77 275.69 -340.26 274.97 -340.74 274.25 -341.2 273.53 -341.65 272.8 -342.09 272.07 -342.51 271.34 -342.92 270.6 -343.32 269.87 -343.7 269.12 -344.08 268.38 -344.44 267.64 -344.78 266.88 -345.12 266.14 -345.44 265.38 -345.76 264.63 -346.06 263.88 -346.35 263.12 -346.63 262.36 -346.9 261.6 -347.15 260.84 -347.4 260.08 -347.64 259.33 -347.86 258.57 -348.08 257.81 -348.28 257.05 -348.48 256.3 -348.66 255.54 -348.84 254.78 -349.01 254.03 -349.17 253.28 -349.32 252.53 -349.46 251.79 -349.6 251.04 -349.72 250.3 -349.84 249.57 -349.94 248.84 -350.04 248.11 -350.14 247.38 -350.22 246.66 -350.3 245.95 -350.38 245.24 -350.44 244.53 -350.5 243.83 -350.55 243.14 -350.6 242.45 -350.63 241.76 -350.67 241.09 -350.69 240.42 -350.72 239.75 -350.73 239.1 -350.74 238.45 -350.74 237.81 -350.74 237.17 -350.74 236.55 -350.73 235.93 -350.72 235.32 -350.7 234.72 -350.67 234.12 -350.65 233.54 -350.62 232.96 -350.58 232.4 -350.55 231.84 -350.5 231.29 -350.46 230.75 -350.41 230.22 -350.36 229.7 -350.26 228.69 -350.14 227.72 -350.02 226.79 -349.89 225.9 -349.76 225.06 -349.62 224.26 -349.48 223.5 -349.35 222.8 -349.21 222.13 -349.08 221.52 -348.95 220.95 -348.82 220.44 -348.71 219.97 -348.6 219.55 -348.5 219.19 -348.34 218.62 -348.23 218.28 -348.19 218.16 -342.6 219.58 -337.02 220.64 -331.46 221.35 -330.39 221.56 -329.85 221.67 -329.3 221.78 -328.75 221.89 -328.19 222 -327.62 222.12 -327.06 222.23 -326.48 222.35 -325.9 222.47 -325.32 222.59 -324.74 222.71 -324.15 222.84 -323.56 222.97 -322.96 223.1 -322.36 223.23 -321.76 223.36 -321.16 223.5 -320.55 223.64 -319.94 223.78 -319.32 223.92 -318.7 224.07 -318.08 224.22 -317.46 224.38 -316.84 224.53 -316.21 224.69 -315.58 224.85 -314.96 225.02 -314.32 225.19 -313.69 225.36 -313.06 225.54 -312.42 225.72 -311.79 225.91 -311.15 226.1 -310.52 226.29 -309.88 226.49 -309.24 226.69 -308.6 226.9 -307.96 227.12 -307.32 227.33 -306.68 227.56 -306.04 227.79 -305.4 228.02 -304.76 228.26 -304.12 228.51 -303.49 228.76 -302.85 229.02 -302.22 229.29 -301.58 229.56 -300.95 229.84 -300.32 230.12 -299.69 230.42 -299.06 230.72 -298.44 231.03 -297.81 231.35 -297.19 231.67 -296.57 232 -295.95 232.34 -295.34 232.69 -294.73 233.05 -294.12 233.42 -293.51 233.79 -292.91 234.18 -292.31 234.57 -292.26 234.6 -292.11 234.7 -292.06 234.74 -291.48 235.13 -290.91 235.53 -290.35 235.93 -289.8 236.34 -289.26 236.74 -288.72 237.16 -288.19 237.57 -287.68 237.99 -287.17 238.41 -286.67 238.84 -286.18 239.26 -285.7 239.7 -285.23 240.13 -284.76 240.57 -284.3 241.01 -283.86 241.45 -283.42 241.9 -282.99 242.35 -282.56 242.8 -282.15 243.26 -281.74 243.72 -281.34 244.18 -280.96 244.65 -280.57 245.11 -280.2 245.58 -279.83 246.06 -279.47 246.53 -279.12 247.01 -278.77 247.49 -278.43 247.97 -278.1 248.45 -277.78 248.94 -277.46 249.43 -277.15 249.92 -276.85 250.41 -276.56 250.9 -276.27 251.4 -275.98 251.9 -275.71 252.4 -275.44 252.9 -275.18 253.4 -274.93 253.9 -274.68 254.41 -274.44 254.91 -274.2 255.42 -273.98 255.92 -273.75 256.43 -273.54 256.94 -273.32 257.45 -273.12 257.96 -272.92 258.47 -272.73 258.98 -272.54 259.5 -272.36 260 -272.18 260.52 -272.02 261.03 -271.85 261.54 -271.69 262.05 -271.54 262.56 -271.39 263.08 -271.25 263.59 -271.11 264.1 -270.98 264.61 -270.85 265.12 -270.73 265.63 -270.61 266.14 -270.5 266.64 -270.39 267.15 -270.29 267.65 -270.19 268.16 -270.1 268.66 -270.01 269.16 -269.92 269.66 -269.84 270.16 -269.77 270.66 -269.7 271.16 -269.63 271.65 -269.56 272.14 -269.51 272.64 -269.45 273.13 -269.4 273.61 -269.35 274.1 -269.31 274.58 -269.27 275.07 -269.23 275.54 -269.2 276.02 -269.14 276.97 -269.1 277.91 -269.07 278.84 -269.06 279.75 -269.05 280.66 -269.06 281.55 -269.08 282.43 -269.1 283.3 -269.14 284.15 -269.19 284.99 -269.24 285.82 -269.31 286.62 -269.38 287.42 -269.45 288.2 -269.54 288.96 -269.62 289.7 -269.72 290.43 -269.82 291.14 -269.92 291.83 -270.03 292.5 -270.14 293.16 -271.29 292.48 -272.46 291.78 -273.65 291.04 -274.87 290.29 -276.11 289.5 -276.74 289.1 -277.38 288.69 -278.02 288.27 -278.67 287.84 -279.33 287.4 -280 286.96 -280.67 286.51 -281.36 286.04 -282.04 285.58 -282.74 285.1 -283.45 284.61 -284.17 284.11 -284.9 283.6 -285.63 283.09 -286.38 282.56 -287.13 282.02 -287.89 281.48 -288.67 280.92 -289.45 280.36 -290.25 279.78 -291.05 279.19 -291.87 278.6 -292.7 277.99 -293.54 277.37 -294.39 276.74 -295.25 276.1 -296.12 275.45 -297.01 274.78 -297.91 274.11 -298.82 273.43 -299.75 272.73 -300.68 272.02 -301.64 271.3 -302.6 270.57 -303.58 269.82 -304.57 269.06 -305.57 268.29 -306.59 267.5 -307.62 266.7 -308.67 265.88 -309.74 265.05 -310.82 264.2 -313.02 262.46 -315.28 260.64 -317.62 258.74 -320.02 256.75 -322.49 254.65 -325.03 252.44 -323.23 254.71 -321.49 256.89 -319.79 259.01 -318.14 261.06 -314.97 264.98 -311.98 268.72 -309.14 272.28 -306.46 275.68 -303.92 278.95 -301.51 282.08 -299.24 285.09 -297.08 287.97 -293.1 293.36 -291.26 295.88 -289.51 298.28 -287.84 300.57 -286.24 302.75 -286.76 302.74 -287.29 302.72 -287.82 302.7 -288.36 302.68 -288.9 302.65 -289.45 302.62 -290.01 302.58 -290.57 302.54 -291.14 302.5 -291.72 302.44 -292.29 302.39 -292.88 302.33 -293.47 302.26 -294.06 302.2 -294.66 302.12 -295.26 302.04 -295.87 301.95 -296.48 301.86 -297.1 301.76 -297.72 301.66 -298.34 301.55 -298.96 301.43 -299.6 301.31 -300.23 301.18 -300.87 301.05 -301.51 300.9 -302.15 300.76 -302.8 300.6 -303.44 300.44 -304.1 300.26 -304.75 300.09 -305.4 299.9 -306.06 299.71 -306.72 299.51 -307.38 299.3 -308.04 299.08 -308.7 298.86 -309.36 298.62 -310.03 298.38 -310.7 298.14 -311.36 297.88 -312.03 297.61 -312.7 297.33 -313.36 297.05 -314.03 296.76 -314.7 296.46 -315.36 296.14 -316.03 295.82 -316.7 295.49 -317.36 295.15 -318.02 294.8 -318.69 294.45 -319.35 294.08 -320.01 293.7 -320.67 293.31 -321.33 292.91 -321.98 292.5 -322.64 292.09 -323.29 291.66 -323.94 291.22 -324.59 290.77 -325.23 290.3 -325.87 289.83" fill="#42974e"/> </g> </svg>